<svg xmlns="http://www.w3.org/2000/svg" viewBox="0 0 44 44" fill="none" role="img" aria-label="WB Хаб">
  <g transform="translate(1.5 9.75) scale(0.552)">
    <path fill="#e400af" d="M0 19.684C0 8.813 8.836 0 19.736 0H55.03c10.9 0 19.736 8.813 19.736 19.684v4.632C74.765 35.187 65.93 44 55.03 44H19.736C8.836 44 0 35.187 0 24.316z"/>
    <path fill="#fff" d="M16.464 33.914 8.494 13.03h5.34l4.716 12.072 4.674-12.072h3.213l4.758 12.155L35.91 13.03h5.091l-7.97 20.885h-3.38l-4.883-12.53-4.924 12.53zM42.464 22.47V3.93h5.008v11.355c1.961-1.88 4.549-2.84 7.136-2.84 5.133 0 10.307 3.675 10.307 11.027 0 6.474-4.757 11.027-11.309 11.027s-11.142-4.553-11.142-12.03m5.008 1.002c0 3.55 2.504 6.056 6.134 6.056s6.135-2.506 6.135-6.056-2.504-6.057-6.135-6.057-6.134 2.506-6.134 6.057"/>
  </g>
</svg>
